<svg width="32" height="32" viewBox="0 0 32 32" fill="none" xmlns="http://www.w3.org/2000/svg">
<g clip-path="url(#clip0_725_106425)">
<path fill-rule="evenodd" clip-rule="evenodd" d="M3.33301 8.90859H28.0148V8.72641L15.9562 3.40104L3.33301 8.7482V8.90859ZM1.33301 9.57795V8.3041C1.33301 7.76583 1.6541 7.2799 2.14805 7.07066L15.4434 1.43878C15.7812 1.29567 16.1629 1.29857 16.4985 1.4468L29.2183 7.06416C29.7023 7.27792 30.0148 7.75866 30.0148 8.28958V9.57795C30.0148 10.3173 29.4178 10.9167 28.6814 10.9167H2.66634C1.92996 10.9167 1.33301 10.3173 1.33301 9.57795Z" fill="#F3F8FF"/>
<path fill-rule="evenodd" clip-rule="evenodd" d="M6.21171 15.0894V21.621H7.9879V15.0894H6.21171ZM5.54504 13.0813C4.80866 13.0813 4.21171 13.6807 4.21171 14.42V22.2903C4.21171 23.0297 4.80866 23.6291 5.54504 23.6291H8.65456C9.39094 23.6291 9.9879 23.0297 9.9879 22.2903V14.42C9.9879 13.6807 9.39094 13.0813 8.65456 13.0813H5.54504Z" fill="#F3F8FF"/>
<path fill-rule="evenodd" clip-rule="evenodd" d="M14.5777 15.0894V21.621H16.3539V15.0894H14.5777ZM13.911 13.0813C13.1747 13.0813 12.5777 13.6807 12.5777 14.42V22.2903C12.5777 23.0297 13.1747 23.6291 13.911 23.6291H17.0206C17.7569 23.6291 18.3539 23.0297 18.3539 22.2903V14.42C18.3539 13.6807 17.7569 13.0813 17.0206 13.0813H13.911Z" fill="#F3F8FF"/>
<path fill-rule="evenodd" clip-rule="evenodd" d="M22.943 15.0894V21.621H24.7192V15.0894H22.943ZM22.2764 13.0813C21.54 13.0813 20.943 13.6807 20.943 14.42V22.2903C20.943 23.0297 21.54 23.6291 22.2764 23.6291H25.3859C26.1223 23.6291 26.7192 23.0297 26.7192 22.2903V14.42C26.7192 13.6807 26.1223 13.0813 25.3859 13.0813H22.2764Z" fill="#F3F8FF"/>
<path fill-rule="evenodd" clip-rule="evenodd" d="M3.58619 26.9406V28.6588H28.6663V26.9406H3.58619ZM2.91952 24.9325C2.18314 24.9325 1.58619 25.5319 1.58619 26.2713V29.3281C1.58619 30.0675 2.18314 30.6668 2.91952 30.6668H29.333C30.0694 30.6668 30.6663 30.0675 30.6663 29.3281V26.2713C30.6663 25.5319 30.0694 24.9325 29.333 24.9325H2.91952Z" fill="#F3F8FF"/>
</g>
<defs>
<clipPath id="clip0_725_106425">
<rect width="32" height="32" fill="white"/>
</clipPath>
</defs>
</svg>
