<svg width="32" height="32" viewBox="0 0 32 32" fill="none" xmlns="http://www.w3.org/2000/svg">
<g clip-path="url(#clip0_725_106403)">
<path fill-rule="evenodd" clip-rule="evenodd" d="M13.2584 4.3335H18.7422C21.1926 4.33348 23.1334 4.33346 24.6524 4.53768C26.2156 4.74785 27.4809 5.19067 28.4787 6.18849C29.4765 7.18631 29.9193 8.45157 30.1295 10.0148C30.2501 10.912 30.2995 11.9563 30.3197 13.1659C30.3289 13.2204 30.3337 13.2764 30.3337 13.3335C30.3337 13.3805 30.3304 13.4267 30.3241 13.472C30.3337 14.2263 30.3337 15.0426 30.3337 15.9249V16.0754C30.3337 18.5257 30.3337 20.4666 30.1295 21.9855C29.9193 23.5488 29.4765 24.814 28.4787 25.8118C27.4809 26.8097 26.2156 27.2525 24.6524 27.4627C23.1334 27.6669 21.1926 27.6669 18.7422 27.6668H13.2584C10.8081 27.6669 8.86725 27.6669 7.3483 27.4627C5.78507 27.2525 4.5198 26.8097 3.52198 25.8118C2.52417 24.814 2.08134 23.5488 1.87117 21.9855C1.66695 20.4666 1.66697 18.5257 1.66699 16.0754V15.9249C1.66698 15.0426 1.66698 14.2263 1.67651 13.472C1.67023 13.4267 1.66699 13.3805 1.66699 13.3335C1.66699 13.2764 1.67178 13.2204 1.68098 13.1659C1.70118 11.9563 1.75055 10.912 1.87117 10.0148C2.08134 8.45157 2.52417 7.18631 3.52198 6.18849C4.5198 5.19067 5.78507 4.74785 7.3483 4.53768C8.86725 4.33346 10.8081 4.33348 13.2584 4.3335ZM3.66964 14.3335C3.66711 14.8514 3.66699 15.4056 3.66699 16.0002C3.66699 18.5426 3.66912 20.3488 3.85334 21.719C4.03369 23.0605 4.37192 23.8333 4.9362 24.3976C5.50048 24.9619 6.27334 25.3001 7.61479 25.4805C8.98501 25.6647 10.7912 25.6668 13.3337 25.6668H18.667C21.2094 25.6668 23.0156 25.6647 24.3859 25.4805C25.7273 25.3001 26.5002 24.9619 27.0645 24.3976C27.6287 23.8333 27.967 23.0605 28.1473 21.719C28.3315 20.3488 28.3337 18.5426 28.3337 16.0002C28.3337 15.4056 28.3335 14.8514 28.331 14.3335H3.66964ZM28.2989 12.3335H3.70176C3.72784 11.5512 3.77348 10.8753 3.85334 10.2813C4.03369 8.93984 4.37192 8.16698 4.9362 7.6027C5.50048 7.03842 6.27334 6.7002 7.61479 6.51984C8.98501 6.33562 10.7912 6.3335 13.3337 6.3335H18.667C21.2094 6.3335 23.0156 6.33562 24.3859 6.51984C25.7273 6.7002 26.5002 7.03842 27.0645 7.6027C27.6287 8.16698 27.967 8.93984 28.1473 10.2813C28.2272 10.8753 28.2728 11.5512 28.2989 12.3335ZM7.00033 21.3335C7.00033 20.7812 7.44804 20.3335 8.00033 20.3335H13.3337C13.8859 20.3335 14.3337 20.7812 14.3337 21.3335C14.3337 21.8858 13.8859 22.3335 13.3337 22.3335H8.00033C7.44804 22.3335 7.00033 21.8858 7.00033 21.3335ZM15.667 21.3335C15.667 20.7812 16.1147 20.3335 16.667 20.3335H18.667C19.2193 20.3335 19.667 20.7812 19.667 21.3335C19.667 21.8858 19.2193 22.3335 18.667 22.3335H16.667C16.1147 22.3335 15.667 21.8858 15.667 21.3335Z" fill="#F3F8FF"/>
</g>
<defs>
<clipPath id="clip0_725_106403">
<rect width="32" height="32" fill="white"/>
</clipPath>
</defs>
</svg>
