<svg width="32" height="32" viewBox="0 0 32 32" fill="none" xmlns="http://www.w3.org/2000/svg">
<g clip-path="url(#clip0_725_106431)">
<path fill-rule="evenodd" clip-rule="evenodd" d="M15.9245 1.6665H16.0749C18.5252 1.66648 20.4661 1.66647 21.985 1.87068C23.5483 2.08085 24.8135 2.52368 25.8114 3.5215C26.8092 4.51931 27.252 5.78458 27.4622 7.34781C27.6664 8.86676 27.6664 10.8076 27.6663 13.258V18.7417C27.6664 21.1921 27.6664 23.1329 27.4622 24.6519C27.252 26.2151 26.8092 27.4804 25.8114 28.4782C24.8135 29.476 23.5483 29.9188 21.985 30.129C20.4661 30.3332 18.5252 30.3332 16.0749 30.3332H15.9245C13.4741 30.3332 11.5333 30.3332 10.0143 30.129C8.45108 29.9188 7.18582 29.476 6.188 28.4782C5.19018 27.4804 4.74736 26.2151 4.53719 24.6519C4.33297 23.1329 4.33299 21.1921 4.33301 18.7417V13.2579C4.33299 10.8076 4.33297 8.86676 4.53719 7.34781C4.74736 5.78458 5.19018 4.51931 6.188 3.5215C7.18582 2.52368 8.45108 2.08085 10.0143 1.87068C11.5333 1.66647 13.4741 1.66648 15.9245 1.6665ZM10.2808 3.85285C8.93935 4.0332 8.16649 4.37143 7.60221 4.93571C7.03793 5.49999 6.69971 6.27285 6.51935 7.6143C6.33513 8.98452 6.33301 10.7907 6.33301 13.3332V18.6665C6.33301 21.2089 6.33513 23.0152 6.51935 24.3854C6.69971 25.7268 7.03793 26.4997 7.60221 27.064C8.16649 27.6282 8.93935 27.9665 10.2808 28.1468C11.651 28.331 13.4572 28.3332 15.9997 28.3332C18.5421 28.3332 20.3483 28.331 21.7185 28.1468C23.06 27.9665 23.8329 27.6282 24.3971 27.064C24.9614 26.4997 25.2996 25.7268 25.48 24.3854C25.6642 23.0152 25.6663 21.2089 25.6663 18.6665V13.3332C25.6663 10.7907 25.6642 8.98452 25.48 7.6143C25.2996 6.27285 24.9614 5.49999 24.3971 4.93571C23.8329 4.37143 23.06 4.0332 21.7185 3.85285C20.3483 3.66863 18.5421 3.6665 15.9997 3.6665C13.4572 3.6665 11.651 3.66863 10.2808 3.85285Z" fill="#F3F8FF"/>
<path fill-rule="evenodd" clip-rule="evenodd" d="M10.9997 6.6665C10.9997 6.11422 11.4474 5.6665 11.9997 5.6665H19.9997C20.552 5.6665 20.9997 6.11422 20.9997 6.6665C20.9997 7.21879 20.552 7.6665 19.9997 7.6665H11.9997C11.4474 7.6665 10.9997 7.21879 10.9997 6.6665Z" fill="#F3F8FF"/>
<path fill-rule="evenodd" clip-rule="evenodd" d="M15.9997 20.9998C15.0792 20.9998 14.333 21.746 14.333 22.6665C14.333 23.587 15.0792 24.3332 15.9997 24.3332C16.9202 24.3332 17.6663 23.587 17.6663 22.6665C17.6663 21.746 16.9202 20.9998 15.9997 20.9998ZM12.333 22.6665C12.333 20.6415 13.9746 18.9998 15.9997 18.9998C18.0247 18.9998 19.6663 20.6415 19.6663 22.6665C19.6663 24.6915 18.0247 26.3332 15.9997 26.3332C13.9746 26.3332 12.333 24.6915 12.333 22.6665Z" fill="#F3F8FF"/>
</g>
<defs>
<clipPath id="clip0_725_106431">
<rect width="32" height="32" fill="white"/>
</clipPath>
</defs>
</svg>
