<svg width="32" height="32" viewBox="0 0 32 32" fill="none" xmlns="http://www.w3.org/2000/svg">
<g clip-path="url(#clip0_725_106440)">
<path fill-rule="evenodd" clip-rule="evenodd" d="M23.0525 6.51984C21.6823 6.33562 19.8761 6.3335 17.3337 6.3335L13.3337 6.3335C10.7912 6.3335 8.98501 6.33562 7.61479 6.51984C6.27334 6.7002 5.50048 7.03842 4.9362 7.6027C4.37192 8.16698 4.03369 8.93984 3.85334 10.2813C3.66912 11.6515 3.66699 13.4577 3.66699 16.0002C3.66699 18.5426 3.66912 20.3488 3.85334 21.719C4.03369 23.0605 4.37192 23.8333 4.9362 24.3976C5.50048 24.9619 6.27334 25.3001 7.61479 25.4805C8.98501 25.6647 10.7912 25.6668 13.3337 25.6668H17.3337C19.8761 25.6668 21.6823 25.6647 23.0525 25.4805C24.394 25.3001 25.1668 24.9619 25.7311 24.3976C26.5145 23.6143 26.8514 22.4429 26.9546 19.9587L28.9528 20.0417C28.8487 22.5503 28.5171 24.44 27.1453 25.8118C26.1475 26.8097 24.8823 27.2525 23.319 27.4627C21.8001 27.6669 19.8592 27.6669 17.4089 27.6668H13.2584C10.8081 27.6669 8.86725 27.6669 7.3483 27.4627C5.78507 27.2525 4.5198 26.8097 3.52198 25.8118C2.52417 24.814 2.08134 23.5488 1.87117 21.9855C1.66695 20.4666 1.66697 18.5257 1.66699 16.0754V15.9249C1.66697 13.4746 1.66695 11.5338 1.87117 10.0148C2.08134 8.45157 2.52417 7.18631 3.52198 6.18849C4.5198 5.19067 5.78507 4.74785 7.3483 4.53768C8.86725 4.33346 10.8081 4.33348 13.2584 4.3335L17.4089 4.3335C19.8592 4.33348 21.8001 4.33346 23.319 4.53768C24.8823 4.74785 26.1475 5.19067 27.1453 6.18849C28.5171 7.56028 28.8487 9.45008 28.9528 11.9587L26.9546 12.0417C26.8514 9.55745 26.5145 8.38603 25.7311 7.6027C25.1668 7.03842 24.394 6.7002 23.0525 6.51984Z" fill="#F3F8FF"/>
<path fill-rule="evenodd" clip-rule="evenodd" d="M9.33366 21.0002C8.78137 21.0002 8.33366 20.5525 8.33366 20.0002V12.0002C8.33366 11.4479 8.78138 11.0002 9.33366 11.0002C9.88595 11.0002 10.3337 11.4479 10.3337 12.0002V20.0002C10.3337 20.5525 9.88594 21.0002 9.33366 21.0002Z" fill="#F3F8FF"/>
<path fill-rule="evenodd" clip-rule="evenodd" d="M27.8984 13.0005C27.8713 13.0002 27.8358 13.0002 27.7781 13.0002H24.308C22.4102 13.0002 21.0003 14.4118 21.0003 16.0002C21.0003 17.5885 22.4102 19.0002 24.308 19.0002H27.7781C27.8358 19.0002 27.8713 19.0002 27.8984 18.9999C27.9239 18.9996 27.9309 18.9992 27.9309 18.9992C28.2057 18.9824 28.324 18.797 28.3329 18.6854C28.3329 18.6854 28.3332 18.677 28.3334 18.6649C28.3336 18.6413 28.3337 18.6097 28.3337 18.5557V13.4446C28.3337 13.3906 28.3336 13.3591 28.3334 13.3354C28.3332 13.3233 28.3329 13.3149 28.3329 13.3149C28.324 13.2034 28.2057 13.0179 27.9309 13.0012C27.9309 13.0012 27.9243 13.0007 27.8984 13.0005ZM27.8002 11.0002C27.8887 11.0001 27.974 11.0001 28.0524 11.0049C29.2142 11.0756 30.2417 11.9519 30.3281 13.1759C30.3338 13.2561 30.3337 13.3427 30.3337 13.4228C30.3337 13.4302 30.3337 13.4374 30.3337 13.4446V18.5557C30.3337 18.5629 30.3337 18.5702 30.3337 18.5775C30.3337 18.6577 30.3338 18.7442 30.3281 18.8244C30.2417 20.0484 29.2142 20.9248 28.0524 20.9955C27.974 21.0002 27.8887 21.0002 27.8002 21.0002C27.7928 21.0002 27.7855 21.0002 27.7781 21.0002H24.308C21.4477 21.0002 19.0003 18.8301 19.0003 16.0002C19.0003 13.1702 21.4477 11.0002 24.308 11.0002H27.7781C27.7855 11.0002 27.7928 11.0002 27.8002 11.0002Z" fill="#F3F8FF"/>
<path fill-rule="evenodd" clip-rule="evenodd" d="M22.655 16.0002C22.655 15.2638 23.2519 14.6668 23.9883 14.6668H24.0003C24.7367 14.6668 25.3337 15.2638 25.3337 16.0002C25.3337 16.7365 24.7367 17.3335 24.0003 17.3335H23.9883C23.2519 17.3335 22.655 16.7365 22.655 16.0002Z" fill="#F3F8FF"/>
</g>
<defs>
<clipPath id="clip0_725_106440">
<rect width="32" height="32" fill="white"/>
</clipPath>
</defs>
</svg>
